# xmcd CD database file
#
# Track frame offsets:
#	150
#	14651
#	33807
#	52876
#	74081
#	89364
#	104707
#	120072
#	134523
#	148121
#	163906
#	182874
#	196797
#	211358
#	225025
#	243913
#	259281
#	276806
#	299221
#	337658
#	352308
#
# Disc length: 4873 seconds
#
# Revision: 0
# Processed by: cddbd v1.5.1PL2 Copyright (c) Steve Scherf et al.
# Submitted via: Feurio! 1.68 - http://www.feurio.com
#
DISCID=45130715
DTITLE=Doobie Brothers - China Groove
DYEAR=1900
DGENRE=Bluesrock
TTITLE0=China Groove
TTITLE1=It Keeps You Runnin'
TTITLE2=Real Love
TTITLE3=Living On The Fault Line
TTITLE4=Minute By Minute
TTITLE5=Double Vision
TTITLE6=Long Train Runnin'
TTITLE7=Spirit
TTITLE8=Ukiah
TTITLE9=Oh What A Night
TTITLE10=Mississippi Moon
TTITLE11=Free Ride
TTITLE12=Natural Thing
TTITLE13=You Belong To Me
TTITLE14=Funky Dixieland
TTITLE15=Without Love
TTITLE16=Drift Away
TTITLE17=Without You
TTITLE18=Listen To The Music
TTITLE19=Evil Woman
TTITLE20=Eyes Of Silver
EXTD=
EXTT0=
EXTT1=
EXTT2=
EXTT3=
EXTT4=
EXTT5=
EXTT6=
EXTT7=
EXTT8=
EXTT9=
EXTT10=
EXTT11=
EXTT12=
EXTT13=
EXTT14=
EXTT15=
EXTT16=
EXTT17=
EXTT18=
EXTT19=
EXTT20=
PLAYORDER=
